<mxfile host="Electron" agent="Mozilla/5.0 (Windows NT 10.0; Win64; x64) AppleWebKit/537.36 (KHTML, like Gecko) draw.io/25.0.2 Chrome/128.0.6613.186 Electron/32.2.5 Safari/537.36" version="25.0.2">
  <diagram name="Page-1" id="MbYHfCbZsGrHQ7NASphW">
    <mxGraphModel dx="954" dy="657" grid="1" gridSize="10" guides="1" tooltips="1" connect="1" arrows="1" fold="1" page="1" pageScale="1" pageWidth="850" pageHeight="1100" math="0" shadow="0">
      <root>
        <mxCell id="0" />
        <mxCell id="1" parent="0" />
        <mxCell id="-wReRoixWaA4bcraCmIL-2" value="&lt;font style=&quot;font-size: 15px;&quot;&gt;MapRepreRepresentative&lt;/font&gt;" style="rounded=1;whiteSpace=wrap;html=1;" parent="1" vertex="1">
          <mxGeometry x="44" y="70" width="202" height="50" as="geometry" />
        </mxCell>
        <mxCell id="-wReRoixWaA4bcraCmIL-4" value="&lt;font style=&quot;font-size: 15px;&quot;&gt;GraphRepresentative&lt;/font&gt;" style="rounded=1;whiteSpace=wrap;html=1;" parent="1" vertex="1">
          <mxGeometry x="45" y="290" width="200" height="50" as="geometry" />
        </mxCell>
        <mxCell id="-wReRoixWaA4bcraCmIL-5" style="rounded=0;orthogonalLoop=1;jettySize=auto;html=1;exitX=0;exitY=0;exitDx=0;exitDy=0;entryX=0.5;entryY=1;entryDx=0;entryDy=0;" parent="1" source="-wReRoixWaA4bcraCmIL-11" target="-wReRoixWaA4bcraCmIL-4" edge="1">
          <mxGeometry relative="1" as="geometry" />
        </mxCell>
        <mxCell id="-wReRoixWaA4bcraCmIL-6" style="rounded=0;orthogonalLoop=1;jettySize=auto;html=1;exitX=0.25;exitY=0;exitDx=0;exitDy=0;entryX=0.5;entryY=1;entryDx=0;entryDy=0;" parent="1" source="-wReRoixWaA4bcraCmIL-11" target="-wReRoixWaA4bcraCmIL-4" edge="1">
          <mxGeometry relative="1" as="geometry">
            <mxPoint x="145" y="340" as="targetPoint" />
          </mxGeometry>
        </mxCell>
        <mxCell id="-wReRoixWaA4bcraCmIL-7" style="rounded=0;orthogonalLoop=1;jettySize=auto;html=1;exitX=0.5;exitY=0;exitDx=0;exitDy=0;entryX=0.5;entryY=1;entryDx=0;entryDy=0;" parent="1" source="-wReRoixWaA4bcraCmIL-11" target="-wReRoixWaA4bcraCmIL-4" edge="1">
          <mxGeometry relative="1" as="geometry" />
        </mxCell>
        <mxCell id="-wReRoixWaA4bcraCmIL-8" style="rounded=0;orthogonalLoop=1;jettySize=auto;html=1;exitX=0.75;exitY=0;exitDx=0;exitDy=0;entryX=0.5;entryY=1;entryDx=0;entryDy=0;" parent="1" source="-wReRoixWaA4bcraCmIL-11" target="-wReRoixWaA4bcraCmIL-4" edge="1">
          <mxGeometry relative="1" as="geometry" />
        </mxCell>
        <mxCell id="-wReRoixWaA4bcraCmIL-9" style="rounded=0;orthogonalLoop=1;jettySize=auto;html=1;exitX=1;exitY=0;exitDx=0;exitDy=0;entryX=0.5;entryY=1;entryDx=0;entryDy=0;" parent="1" source="-wReRoixWaA4bcraCmIL-11" target="-wReRoixWaA4bcraCmIL-4" edge="1">
          <mxGeometry relative="1" as="geometry" />
        </mxCell>
        <mxCell id="-wReRoixWaA4bcraCmIL-11" value="&lt;i&gt;&lt;font style=&quot;font-size: 15px;&quot;&gt;Triedy implementujúce&amp;nbsp;&lt;/font&gt;&lt;/i&gt;&lt;div&gt;&lt;span style=&quot;font-size: 15px;&quot;&gt;&lt;i&gt;grafových reprezentantov&lt;/i&gt;&lt;/span&gt;&lt;/div&gt;" style="rounded=0;whiteSpace=wrap;html=1;" parent="1" vertex="1">
          <mxGeometry x="20" y="390" width="250" height="100" as="geometry" />
        </mxCell>
        <mxCell id="-wReRoixWaA4bcraCmIL-31" style="rounded=0;orthogonalLoop=1;jettySize=auto;html=1;exitX=1;exitY=0;exitDx=0;exitDy=0;dashed=1;" parent="1" edge="1">
          <mxGeometry relative="1" as="geometry">
            <mxPoint x="320" y="40" as="sourcePoint" />
            <mxPoint x="480" y="40" as="targetPoint" />
          </mxGeometry>
        </mxCell>
        <mxCell id="-wReRoixWaA4bcraCmIL-32" value="&lt;font style=&quot;font-size: 13px;&quot;&gt;Reprezentuje&lt;/font&gt;" style="edgeLabel;html=1;align=center;verticalAlign=middle;resizable=0;points=[];" parent="-wReRoixWaA4bcraCmIL-31" vertex="1" connectable="0">
          <mxGeometry x="-0.1209" y="1" relative="1" as="geometry">
            <mxPoint x="10" y="-19" as="offset" />
          </mxGeometry>
        </mxCell>
        <mxCell id="-wReRoixWaA4bcraCmIL-33" style="rounded=0;orthogonalLoop=1;jettySize=auto;html=1;" parent="1" edge="1">
          <mxGeometry relative="1" as="geometry">
            <mxPoint x="120" y="40" as="sourcePoint" />
            <mxPoint x="280" y="40" as="targetPoint" />
          </mxGeometry>
        </mxCell>
        <mxCell id="-wReRoixWaA4bcraCmIL-34" value="&lt;font style=&quot;font-size: 13px;&quot;&gt;Dedí / Implementuje&lt;/font&gt;" style="edgeLabel;html=1;align=center;verticalAlign=middle;resizable=0;points=[];" parent="-wReRoixWaA4bcraCmIL-33" vertex="1" connectable="0">
          <mxGeometry x="-0.3827" y="2" relative="1" as="geometry">
            <mxPoint x="28" y="-18" as="offset" />
          </mxGeometry>
        </mxCell>
        <mxCell id="-wReRoixWaA4bcraCmIL-36" style="rounded=0;orthogonalLoop=1;jettySize=auto;html=1;exitX=0;exitY=0;exitDx=0;exitDy=0;entryX=0.5;entryY=1;entryDx=0;entryDy=0;" parent="1" source="-wReRoixWaA4bcraCmIL-35" target="-wReRoixWaA4bcraCmIL-2" edge="1">
          <mxGeometry relative="1" as="geometry" />
        </mxCell>
        <mxCell id="-wReRoixWaA4bcraCmIL-37" style="rounded=0;orthogonalLoop=1;jettySize=auto;html=1;exitX=0.25;exitY=0;exitDx=0;exitDy=0;entryX=0.5;entryY=1;entryDx=0;entryDy=0;" parent="1" source="-wReRoixWaA4bcraCmIL-35" target="-wReRoixWaA4bcraCmIL-2" edge="1">
          <mxGeometry relative="1" as="geometry">
            <mxPoint x="156" y="150" as="targetPoint" />
          </mxGeometry>
        </mxCell>
        <mxCell id="-wReRoixWaA4bcraCmIL-38" style="rounded=0;orthogonalLoop=1;jettySize=auto;html=1;exitX=0.5;exitY=0;exitDx=0;exitDy=0;entryX=0.5;entryY=1;entryDx=0;entryDy=0;" parent="1" source="-wReRoixWaA4bcraCmIL-35" target="-wReRoixWaA4bcraCmIL-2" edge="1">
          <mxGeometry relative="1" as="geometry" />
        </mxCell>
        <mxCell id="-wReRoixWaA4bcraCmIL-39" style="rounded=0;orthogonalLoop=1;jettySize=auto;html=1;exitX=0.75;exitY=0;exitDx=0;exitDy=0;entryX=0.5;entryY=1;entryDx=0;entryDy=0;" parent="1" source="-wReRoixWaA4bcraCmIL-35" target="-wReRoixWaA4bcraCmIL-2" edge="1">
          <mxGeometry relative="1" as="geometry" />
        </mxCell>
        <mxCell id="-wReRoixWaA4bcraCmIL-40" style="rounded=0;orthogonalLoop=1;jettySize=auto;html=1;exitX=1;exitY=0;exitDx=0;exitDy=0;entryX=0.5;entryY=1;entryDx=0;entryDy=0;" parent="1" source="-wReRoixWaA4bcraCmIL-35" target="-wReRoixWaA4bcraCmIL-2" edge="1">
          <mxGeometry relative="1" as="geometry" />
        </mxCell>
        <mxCell id="-wReRoixWaA4bcraCmIL-35" value="&lt;i&gt;&lt;font style=&quot;font-size: 15px;&quot;&gt;Triedy implementujúce&amp;nbsp;&lt;/font&gt;&lt;/i&gt;&lt;div&gt;&lt;span style=&quot;font-size: 15px;&quot;&gt;&lt;i&gt;reprezentantov mapových&amp;nbsp;&lt;/i&gt;&lt;/span&gt;&lt;/div&gt;&lt;div&gt;&lt;span style=&quot;font-size: 15px;&quot;&gt;&lt;i&gt;reprezentácií&lt;/i&gt;&lt;/span&gt;&lt;/div&gt;" style="rounded=0;whiteSpace=wrap;html=1;" parent="1" vertex="1">
          <mxGeometry x="20" y="170" width="250" height="100" as="geometry" />
        </mxCell>
        <mxCell id="-wReRoixWaA4bcraCmIL-41" value="&lt;font style=&quot;font-size: 15px;&quot;&gt;Implementation-&lt;/font&gt;&lt;div&gt;&lt;font style=&quot;font-size: 15px;&quot;&gt;ElevData-&lt;/font&gt;&lt;/div&gt;&lt;div&gt;&lt;font style=&quot;font-size: 15px;&quot;&gt;IndepCreator&lt;/font&gt;&lt;/div&gt;" style="rounded=1;whiteSpace=wrap;html=1;" parent="1" vertex="1">
          <mxGeometry x="437" y="840" width="160" height="60" as="geometry" />
        </mxCell>
        <mxCell id="-wReRoixWaA4bcraCmIL-42" value="&lt;font style=&quot;font-size: 15px;&quot;&gt;IImplementationIndicator&lt;/font&gt;" style="rounded=1;whiteSpace=wrap;html=1;" parent="1" vertex="1">
          <mxGeometry x="20" y="850" width="200" height="50" as="geometry" />
        </mxCell>
        <mxCell id="-wReRoixWaA4bcraCmIL-43" value="&lt;font style=&quot;font-size: 15px;&quot;&gt;IImplementation-&lt;/font&gt;&lt;div&gt;&lt;font style=&quot;font-size: 15px;&quot;&gt;ElevData-&lt;/font&gt;&lt;/div&gt;&lt;div&gt;&lt;font style=&quot;font-size: 15px;&quot;&gt;DepCreator&lt;/font&gt;&lt;/div&gt;" style="rounded=1;whiteSpace=wrap;html=1;" parent="1" vertex="1">
          <mxGeometry x="257" y="840" width="160" height="60" as="geometry" />
        </mxCell>
        <mxCell id="-wReRoixWaA4bcraCmIL-48" style="rounded=0;orthogonalLoop=1;jettySize=auto;html=1;exitX=0.75;exitY=1;exitDx=0;exitDy=0;entryX=0.5;entryY=0;entryDx=0;entryDy=0;" parent="1" source="-wReRoixWaA4bcraCmIL-44" target="-wReRoixWaA4bcraCmIL-43" edge="1">
          <mxGeometry relative="1" as="geometry" />
        </mxCell>
        <mxCell id="-wReRoixWaA4bcraCmIL-50" style="rounded=0;orthogonalLoop=1;jettySize=auto;html=1;exitX=0.25;exitY=1;exitDx=0;exitDy=0;entryX=0.25;entryY=0;entryDx=0;entryDy=0;" parent="1" source="-wReRoixWaA4bcraCmIL-44" target="-wReRoixWaA4bcraCmIL-42" edge="1">
          <mxGeometry relative="1" as="geometry" />
        </mxCell>
        <mxCell id="-wReRoixWaA4bcraCmIL-44" value="&lt;span style=&quot;font-size: 15px;&quot;&gt;ElevDataDep-&lt;/span&gt;&lt;div&gt;&lt;span style=&quot;font-size: 15px;&quot;&gt;ImplementationRep&lt;/span&gt;&lt;/div&gt;" style="rounded=0;whiteSpace=wrap;html=1;" parent="1" vertex="1">
          <mxGeometry x="85" y="740" width="160" height="50" as="geometry" />
        </mxCell>
        <mxCell id="-wReRoixWaA4bcraCmIL-49" style="rounded=0;orthogonalLoop=1;jettySize=auto;html=1;exitX=0.25;exitY=1;exitDx=0;exitDy=0;entryX=0.75;entryY=0;entryDx=0;entryDy=0;" parent="1" source="-wReRoixWaA4bcraCmIL-45" target="-wReRoixWaA4bcraCmIL-42" edge="1">
          <mxGeometry relative="1" as="geometry" />
        </mxCell>
        <mxCell id="-wReRoixWaA4bcraCmIL-51" style="rounded=0;orthogonalLoop=1;jettySize=auto;html=1;exitX=0.75;exitY=1;exitDx=0;exitDy=0;entryX=0.5;entryY=0;entryDx=0;entryDy=0;" parent="1" source="-wReRoixWaA4bcraCmIL-45" target="-wReRoixWaA4bcraCmIL-41" edge="1">
          <mxGeometry relative="1" as="geometry" />
        </mxCell>
        <mxCell id="-wReRoixWaA4bcraCmIL-45" value="&lt;span style=&quot;font-size: 15px;&quot;&gt;ElevDataIndep-&lt;/span&gt;&lt;div&gt;&lt;span style=&quot;font-size: 15px;&quot;&gt;ImplementationRep&lt;/span&gt;&lt;/div&gt;" style="rounded=0;whiteSpace=wrap;html=1;" parent="1" vertex="1">
          <mxGeometry x="265" y="740" width="160" height="50" as="geometry" />
        </mxCell>
        <mxCell id="-wReRoixWaA4bcraCmIL-53" style="rounded=0;orthogonalLoop=1;jettySize=auto;html=1;exitX=0;exitY=1;exitDx=0;exitDy=0;entryX=0.5;entryY=0;entryDx=0;entryDy=0;" parent="1" source="-wReRoixWaA4bcraCmIL-52" target="-wReRoixWaA4bcraCmIL-44" edge="1">
          <mxGeometry relative="1" as="geometry" />
        </mxCell>
        <mxCell id="-wReRoixWaA4bcraCmIL-54" style="rounded=0;orthogonalLoop=1;jettySize=auto;html=1;exitX=0.25;exitY=1;exitDx=0;exitDy=0;entryX=0.5;entryY=0;entryDx=0;entryDy=0;" parent="1" source="-wReRoixWaA4bcraCmIL-52" target="-wReRoixWaA4bcraCmIL-44" edge="1">
          <mxGeometry relative="1" as="geometry">
            <mxPoint x="236.55555555555554" y="610" as="targetPoint" />
          </mxGeometry>
        </mxCell>
        <mxCell id="-wReRoixWaA4bcraCmIL-55" style="rounded=0;orthogonalLoop=1;jettySize=auto;html=1;exitX=0.5;exitY=1;exitDx=0;exitDy=0;entryX=0.5;entryY=0;entryDx=0;entryDy=0;" parent="1" source="-wReRoixWaA4bcraCmIL-52" target="-wReRoixWaA4bcraCmIL-44" edge="1">
          <mxGeometry relative="1" as="geometry" />
        </mxCell>
        <mxCell id="-wReRoixWaA4bcraCmIL-56" style="rounded=0;orthogonalLoop=1;jettySize=auto;html=1;exitX=0.5;exitY=1;exitDx=0;exitDy=0;entryX=0.5;entryY=0;entryDx=0;entryDy=0;" parent="1" source="-wReRoixWaA4bcraCmIL-52" target="-wReRoixWaA4bcraCmIL-45" edge="1">
          <mxGeometry relative="1" as="geometry">
            <mxPoint x="389" y="790" as="targetPoint" />
          </mxGeometry>
        </mxCell>
        <mxCell id="-wReRoixWaA4bcraCmIL-57" style="rounded=0;orthogonalLoop=1;jettySize=auto;html=1;exitX=0.75;exitY=1;exitDx=0;exitDy=0;entryX=0.5;entryY=0;entryDx=0;entryDy=0;" parent="1" source="-wReRoixWaA4bcraCmIL-52" target="-wReRoixWaA4bcraCmIL-45" edge="1">
          <mxGeometry relative="1" as="geometry" />
        </mxCell>
        <mxCell id="-wReRoixWaA4bcraCmIL-58" style="rounded=0;orthogonalLoop=1;jettySize=auto;html=1;exitX=1;exitY=1;exitDx=0;exitDy=0;entryX=0.5;entryY=0;entryDx=0;entryDy=0;" parent="1" source="-wReRoixWaA4bcraCmIL-52" target="-wReRoixWaA4bcraCmIL-45" edge="1">
          <mxGeometry relative="1" as="geometry" />
        </mxCell>
        <mxCell id="-wReRoixWaA4bcraCmIL-52" value="&lt;i&gt;&lt;font style=&quot;font-size: 15px;&quot;&gt;Triedy implementujúce&amp;nbsp;&lt;/font&gt;&lt;/i&gt;&lt;div&gt;&lt;span style=&quot;font-size: 15px;&quot;&gt;&lt;i&gt;reprezentantov implementácií&lt;/i&gt;&lt;/span&gt;&lt;/div&gt;&lt;div&gt;&lt;span style=&quot;font-size: 15px;&quot;&gt;&lt;i&gt;mapových reprezentácií / grafov&lt;/i&gt;&lt;/span&gt;&lt;/div&gt;" style="rounded=0;whiteSpace=wrap;html=1;" parent="1" vertex="1">
          <mxGeometry x="20" y="580" width="250" height="100" as="geometry" />
        </mxCell>
        <mxCell id="-wReRoixWaA4bcraCmIL-59" value="&lt;font style=&quot;font-size: 15px;&quot;&gt;IMapRepre&lt;/font&gt;" style="rounded=1;whiteSpace=wrap;html=1;" parent="1" vertex="1">
          <mxGeometry x="370" y="70" width="200" height="50" as="geometry" />
        </mxCell>
        <mxCell id="-wReRoixWaA4bcraCmIL-61" style="rounded=0;orthogonalLoop=1;jettySize=auto;html=1;exitX=0.25;exitY=0;exitDx=0;exitDy=0;entryX=0.5;entryY=1;entryDx=0;entryDy=0;" parent="1" source="-wReRoixWaA4bcraCmIL-60" target="-wReRoixWaA4bcraCmIL-59" edge="1">
          <mxGeometry relative="1" as="geometry" />
        </mxCell>
        <mxCell id="-wReRoixWaA4bcraCmIL-62" style="rounded=0;orthogonalLoop=1;jettySize=auto;html=1;exitX=0.5;exitY=0;exitDx=0;exitDy=0;entryX=0.5;entryY=1;entryDx=0;entryDy=0;" parent="1" source="-wReRoixWaA4bcraCmIL-60" target="-wReRoixWaA4bcraCmIL-59" edge="1">
          <mxGeometry relative="1" as="geometry">
            <mxPoint x="495" y="160" as="targetPoint" />
          </mxGeometry>
        </mxCell>
        <mxCell id="-wReRoixWaA4bcraCmIL-63" style="rounded=0;orthogonalLoop=1;jettySize=auto;html=1;exitX=0.75;exitY=0;exitDx=0;exitDy=0;entryX=0.5;entryY=1;entryDx=0;entryDy=0;" parent="1" source="-wReRoixWaA4bcraCmIL-60" target="-wReRoixWaA4bcraCmIL-59" edge="1">
          <mxGeometry relative="1" as="geometry">
            <mxPoint x="455" y="120" as="targetPoint" />
          </mxGeometry>
        </mxCell>
        <mxCell id="-wReRoixWaA4bcraCmIL-60" value="&lt;font style=&quot;font-size: 15px;&quot;&gt;&lt;i&gt;Rozhrania zastupujúce jednotlivé mapové reprezentácie&lt;/i&gt;&lt;/font&gt;" style="rounded=1;whiteSpace=wrap;html=1;" parent="1" vertex="1">
          <mxGeometry x="370" y="170" width="200" height="100" as="geometry" />
        </mxCell>
        <mxCell id="-wReRoixWaA4bcraCmIL-101" style="rounded=0;orthogonalLoop=1;jettySize=auto;html=1;exitX=0.5;exitY=0;exitDx=0;exitDy=0;entryX=1;entryY=0.5;entryDx=0;entryDy=0;" parent="1" source="-wReRoixWaA4bcraCmIL-64" target="-wReRoixWaA4bcraCmIL-59" edge="1">
          <mxGeometry relative="1" as="geometry" />
        </mxCell>
        <mxCell id="-wReRoixWaA4bcraCmIL-64" value="&lt;font style=&quot;font-size: 15px;&quot;&gt;IGraph&lt;/font&gt;" style="rounded=1;whiteSpace=wrap;html=1;" parent="1" vertex="1">
          <mxGeometry x="649" y="340" width="142" height="50" as="geometry" />
        </mxCell>
        <mxCell id="-wReRoixWaA4bcraCmIL-65" style="rounded=0;orthogonalLoop=1;jettySize=auto;html=1;exitX=1;exitY=0.25;exitDx=0;exitDy=0;entryX=0;entryY=0.5;entryDx=0;entryDy=0;" parent="1" source="-wReRoixWaA4bcraCmIL-68" target="-wReRoixWaA4bcraCmIL-64" edge="1">
          <mxGeometry relative="1" as="geometry" />
        </mxCell>
        <mxCell id="-wReRoixWaA4bcraCmIL-66" style="rounded=0;orthogonalLoop=1;jettySize=auto;html=1;exitX=1;exitY=0.5;exitDx=0;exitDy=0;entryX=0;entryY=0.5;entryDx=0;entryDy=0;" parent="1" source="-wReRoixWaA4bcraCmIL-68" target="-wReRoixWaA4bcraCmIL-64" edge="1">
          <mxGeometry relative="1" as="geometry">
            <mxPoint x="757" y="210" as="targetPoint" />
          </mxGeometry>
        </mxCell>
        <mxCell id="-wReRoixWaA4bcraCmIL-67" style="rounded=0;orthogonalLoop=1;jettySize=auto;html=1;exitX=1;exitY=0.75;exitDx=0;exitDy=0;entryX=0;entryY=0.5;entryDx=0;entryDy=0;" parent="1" source="-wReRoixWaA4bcraCmIL-68" target="-wReRoixWaA4bcraCmIL-64" edge="1">
          <mxGeometry relative="1" as="geometry">
            <mxPoint x="717" y="170" as="targetPoint" />
          </mxGeometry>
        </mxCell>
        <mxCell id="-wReRoixWaA4bcraCmIL-70" style="rounded=0;orthogonalLoop=1;jettySize=auto;html=1;exitX=1;exitY=0.75;exitDx=0;exitDy=0;entryX=0;entryY=0.75;entryDx=0;entryDy=0;" parent="1" source="-wReRoixWaA4bcraCmIL-68" target="-wReRoixWaA4bcraCmIL-69" edge="1">
          <mxGeometry relative="1" as="geometry" />
        </mxCell>
        <mxCell id="-wReRoixWaA4bcraCmIL-71" style="rounded=0;orthogonalLoop=1;jettySize=auto;html=1;exitX=1;exitY=0.75;exitDx=0;exitDy=0;entryX=0;entryY=0.5;entryDx=0;entryDy=0;" parent="1" source="-wReRoixWaA4bcraCmIL-68" target="-wReRoixWaA4bcraCmIL-69" edge="1">
          <mxGeometry relative="1" as="geometry" />
        </mxCell>
        <mxCell id="-wReRoixWaA4bcraCmIL-72" style="rounded=0;orthogonalLoop=1;jettySize=auto;html=1;exitX=1;exitY=0.5;exitDx=0;exitDy=0;entryX=0;entryY=0.25;entryDx=0;entryDy=0;" parent="1" source="-wReRoixWaA4bcraCmIL-68" target="-wReRoixWaA4bcraCmIL-69" edge="1">
          <mxGeometry relative="1" as="geometry" />
        </mxCell>
        <mxCell id="-wReRoixWaA4bcraCmIL-73" style="rounded=0;orthogonalLoop=1;jettySize=auto;html=1;exitX=1;exitY=0.25;exitDx=0;exitDy=0;entryX=0;entryY=0.75;entryDx=0;entryDy=0;" parent="1" source="-wReRoixWaA4bcraCmIL-68" target="-wReRoixWaA4bcraCmIL-69" edge="1">
          <mxGeometry relative="1" as="geometry" />
        </mxCell>
        <mxCell id="-wReRoixWaA4bcraCmIL-74" style="rounded=0;orthogonalLoop=1;jettySize=auto;html=1;exitX=1;exitY=0.5;exitDx=0;exitDy=0;entryX=0;entryY=0.25;entryDx=0;entryDy=0;" parent="1" source="-wReRoixWaA4bcraCmIL-68" target="-wReRoixWaA4bcraCmIL-69" edge="1">
          <mxGeometry relative="1" as="geometry" />
        </mxCell>
        <mxCell id="-wReRoixWaA4bcraCmIL-75" style="rounded=0;orthogonalLoop=1;jettySize=auto;html=1;exitX=1;exitY=0.25;exitDx=0;exitDy=0;entryX=0;entryY=0.25;entryDx=0;entryDy=0;" parent="1" source="-wReRoixWaA4bcraCmIL-68" target="-wReRoixWaA4bcraCmIL-69" edge="1">
          <mxGeometry relative="1" as="geometry" />
        </mxCell>
        <mxCell id="-wReRoixWaA4bcraCmIL-76" style="rounded=0;orthogonalLoop=1;jettySize=auto;html=1;exitX=0.25;exitY=0;exitDx=0;exitDy=0;entryX=0.25;entryY=1;entryDx=0;entryDy=0;" parent="1" source="-wReRoixWaA4bcraCmIL-68" target="-wReRoixWaA4bcraCmIL-60" edge="1">
          <mxGeometry relative="1" as="geometry" />
        </mxCell>
        <mxCell id="-wReRoixWaA4bcraCmIL-77" style="rounded=0;orthogonalLoop=1;jettySize=auto;html=1;exitX=0.5;exitY=0;exitDx=0;exitDy=0;entryX=0.5;entryY=1;entryDx=0;entryDy=0;" parent="1" source="-wReRoixWaA4bcraCmIL-68" target="-wReRoixWaA4bcraCmIL-60" edge="1">
          <mxGeometry relative="1" as="geometry" />
        </mxCell>
        <mxCell id="-wReRoixWaA4bcraCmIL-78" style="rounded=0;orthogonalLoop=1;jettySize=auto;html=1;exitX=0.75;exitY=0;exitDx=0;exitDy=0;entryX=0.75;entryY=1;entryDx=0;entryDy=0;" parent="1" source="-wReRoixWaA4bcraCmIL-68" target="-wReRoixWaA4bcraCmIL-60" edge="1">
          <mxGeometry relative="1" as="geometry" />
        </mxCell>
        <mxCell id="-wReRoixWaA4bcraCmIL-68" value="&lt;font style=&quot;font-size: 15px;&quot;&gt;&lt;i&gt;Rozhrania zastupujúce jednotlivé grafy&lt;/i&gt;&lt;/font&gt;" style="rounded=1;whiteSpace=wrap;html=1;" parent="1" vertex="1">
          <mxGeometry x="370" y="390" width="200" height="100" as="geometry" />
        </mxCell>
        <mxCell id="-wReRoixWaA4bcraCmIL-69" value="&lt;font style=&quot;font-size: 15px;&quot;&gt;&lt;i&gt;Rozhrania definujúce funkcionalitu grafov&lt;/i&gt;&lt;/font&gt;" style="rounded=1;whiteSpace=wrap;html=1;" parent="1" vertex="1">
          <mxGeometry x="620" y="430" width="200" height="100" as="geometry" />
        </mxCell>
        <mxCell id="-wReRoixWaA4bcraCmIL-79" style="rounded=0;orthogonalLoop=1;jettySize=auto;html=1;exitX=1;exitY=0.25;exitDx=0;exitDy=0;dashed=1;entryX=0;entryY=0.25;entryDx=0;entryDy=0;" parent="1" source="-wReRoixWaA4bcraCmIL-35" target="-wReRoixWaA4bcraCmIL-60" edge="1">
          <mxGeometry relative="1" as="geometry">
            <mxPoint x="287" y="200" as="sourcePoint" />
            <mxPoint x="447" y="200" as="targetPoint" />
          </mxGeometry>
        </mxCell>
        <mxCell id="-wReRoixWaA4bcraCmIL-82" style="rounded=0;orthogonalLoop=1;jettySize=auto;html=1;exitX=1;exitY=0.5;exitDx=0;exitDy=0;dashed=1;entryX=0;entryY=0.5;entryDx=0;entryDy=0;" parent="1" source="-wReRoixWaA4bcraCmIL-35" target="-wReRoixWaA4bcraCmIL-60" edge="1">
          <mxGeometry relative="1" as="geometry">
            <mxPoint x="280" y="215" as="sourcePoint" />
            <mxPoint x="396" y="205" as="targetPoint" />
          </mxGeometry>
        </mxCell>
        <mxCell id="-wReRoixWaA4bcraCmIL-83" style="rounded=0;orthogonalLoop=1;jettySize=auto;html=1;exitX=1;exitY=0.75;exitDx=0;exitDy=0;dashed=1;entryX=0;entryY=0.75;entryDx=0;entryDy=0;" parent="1" source="-wReRoixWaA4bcraCmIL-35" target="-wReRoixWaA4bcraCmIL-60" edge="1">
          <mxGeometry relative="1" as="geometry">
            <mxPoint x="290" y="225" as="sourcePoint" />
            <mxPoint x="406" y="215" as="targetPoint" />
          </mxGeometry>
        </mxCell>
        <mxCell id="-wReRoixWaA4bcraCmIL-84" style="rounded=0;orthogonalLoop=1;jettySize=auto;html=1;exitX=1;exitY=0.75;exitDx=0;exitDy=0;dashed=1;entryX=0;entryY=0.75;entryDx=0;entryDy=0;" parent="1" source="-wReRoixWaA4bcraCmIL-11" target="-wReRoixWaA4bcraCmIL-68" edge="1">
          <mxGeometry relative="1" as="geometry">
            <mxPoint x="280" y="590" as="sourcePoint" />
            <mxPoint x="396" y="580" as="targetPoint" />
          </mxGeometry>
        </mxCell>
        <mxCell id="-wReRoixWaA4bcraCmIL-85" style="rounded=0;orthogonalLoop=1;jettySize=auto;html=1;exitX=1;exitY=0.25;exitDx=0;exitDy=0;dashed=1;entryX=0;entryY=0.25;entryDx=0;entryDy=0;" parent="1" source="-wReRoixWaA4bcraCmIL-11" target="-wReRoixWaA4bcraCmIL-68" edge="1">
          <mxGeometry relative="1" as="geometry">
            <mxPoint x="269" y="520" as="sourcePoint" />
            <mxPoint x="385" y="510" as="targetPoint" />
          </mxGeometry>
        </mxCell>
        <mxCell id="-wReRoixWaA4bcraCmIL-86" style="rounded=0;orthogonalLoop=1;jettySize=auto;html=1;exitX=1;exitY=0.5;exitDx=0;exitDy=0;dashed=1;entryX=0;entryY=0.5;entryDx=0;entryDy=0;" parent="1" source="-wReRoixWaA4bcraCmIL-11" target="-wReRoixWaA4bcraCmIL-68" edge="1">
          <mxGeometry relative="1" as="geometry">
            <mxPoint x="320" y="255" as="sourcePoint" />
            <mxPoint x="436" y="245" as="targetPoint" />
          </mxGeometry>
        </mxCell>
        <mxCell id="-wReRoixWaA4bcraCmIL-88" style="rounded=0;orthogonalLoop=1;jettySize=auto;html=1;exitX=0;exitY=0;exitDx=0;exitDy=0;entryX=0.25;entryY=1;entryDx=0;entryDy=0;" parent="1" source="-wReRoixWaA4bcraCmIL-91" target="-wReRoixWaA4bcraCmIL-68" edge="1">
          <mxGeometry relative="1" as="geometry">
            <mxPoint x="419" y="620" as="sourcePoint" />
          </mxGeometry>
        </mxCell>
        <mxCell id="-wReRoixWaA4bcraCmIL-89" style="rounded=0;orthogonalLoop=1;jettySize=auto;html=1;exitX=0.5;exitY=0;exitDx=0;exitDy=0;entryX=0.25;entryY=1;entryDx=0;entryDy=0;" parent="1" source="-wReRoixWaA4bcraCmIL-91" target="-wReRoixWaA4bcraCmIL-68" edge="1">
          <mxGeometry relative="1" as="geometry">
            <mxPoint x="469" y="620" as="sourcePoint" />
          </mxGeometry>
        </mxCell>
        <mxCell id="-wReRoixWaA4bcraCmIL-90" style="rounded=0;orthogonalLoop=1;jettySize=auto;html=1;exitX=0.75;exitY=0;exitDx=0;exitDy=0;entryX=0.75;entryY=1;entryDx=0;entryDy=0;" parent="1" source="-wReRoixWaA4bcraCmIL-91" target="-wReRoixWaA4bcraCmIL-68" edge="1">
          <mxGeometry relative="1" as="geometry">
            <mxPoint x="519" y="620" as="sourcePoint" />
          </mxGeometry>
        </mxCell>
        <mxCell id="-wReRoixWaA4bcraCmIL-91" value="&lt;span style=&quot;font-size: 15px;&quot;&gt;&lt;i&gt;Triedy implementujúce&amp;nbsp;&lt;/i&gt;&lt;/span&gt;&lt;div&gt;&lt;i style=&quot;font-size: 15px; background-color: initial;&quot;&gt;mapové reprezentácie&amp;nbsp;&lt;/i&gt;&lt;i style=&quot;background-color: initial; font-size: 15px;&quot;&gt;/&lt;/i&gt;&lt;i style=&quot;background-color: initial; font-size: 15px;&quot;&gt;&amp;nbsp;grafy&lt;/i&gt;&lt;/div&gt;" style="rounded=0;whiteSpace=wrap;html=1;" parent="1" vertex="1">
          <mxGeometry x="360" y="580" width="220" height="100" as="geometry" />
        </mxCell>
        <mxCell id="-wReRoixWaA4bcraCmIL-93" style="rounded=0;orthogonalLoop=1;jettySize=auto;html=1;exitX=1;exitY=0.75;exitDx=0;exitDy=0;dashed=1;entryX=0;entryY=0.75;entryDx=0;entryDy=0;" parent="1" source="-wReRoixWaA4bcraCmIL-52" target="-wReRoixWaA4bcraCmIL-91" edge="1">
          <mxGeometry relative="1" as="geometry">
            <mxPoint x="270" y="654.44" as="sourcePoint" />
            <mxPoint x="400" y="654.44" as="targetPoint" />
          </mxGeometry>
        </mxCell>
        <mxCell id="-wReRoixWaA4bcraCmIL-94" style="rounded=0;orthogonalLoop=1;jettySize=auto;html=1;exitX=1;exitY=0.25;exitDx=0;exitDy=0;dashed=1;entryX=0;entryY=0.25;entryDx=0;entryDy=0;" parent="1" source="-wReRoixWaA4bcraCmIL-52" target="-wReRoixWaA4bcraCmIL-91" edge="1">
          <mxGeometry relative="1" as="geometry">
            <mxPoint x="270" y="604.44" as="sourcePoint" />
            <mxPoint x="400" y="604.44" as="targetPoint" />
          </mxGeometry>
        </mxCell>
        <mxCell id="-wReRoixWaA4bcraCmIL-95" style="rounded=0;orthogonalLoop=1;jettySize=auto;html=1;exitX=1;exitY=0.5;exitDx=0;exitDy=0;dashed=1;entryX=0;entryY=0.5;entryDx=0;entryDy=0;" parent="1" source="-wReRoixWaA4bcraCmIL-52" target="-wReRoixWaA4bcraCmIL-91" edge="1">
          <mxGeometry relative="1" as="geometry">
            <mxPoint x="270" y="629.44" as="sourcePoint" />
            <mxPoint x="380" y="629" as="targetPoint" />
          </mxGeometry>
        </mxCell>
        <mxCell id="-wReRoixWaA4bcraCmIL-96" style="rounded=0;orthogonalLoop=1;jettySize=auto;html=1;exitX=1;exitY=0;exitDx=0;exitDy=0;dashed=1;entryX=0;entryY=0;entryDx=0;entryDy=0;" parent="1" source="-wReRoixWaA4bcraCmIL-52" target="-wReRoixWaA4bcraCmIL-91" edge="1">
          <mxGeometry relative="1" as="geometry">
            <mxPoint x="277.5" y="580" as="sourcePoint" />
            <mxPoint x="407.5" y="580" as="targetPoint" />
          </mxGeometry>
        </mxCell>
        <mxCell id="-wReRoixWaA4bcraCmIL-97" style="rounded=0;orthogonalLoop=1;jettySize=auto;html=1;exitX=1;exitY=1;exitDx=0;exitDy=0;dashed=1;entryX=0;entryY=1;entryDx=0;entryDy=0;" parent="1" source="-wReRoixWaA4bcraCmIL-52" target="-wReRoixWaA4bcraCmIL-91" edge="1">
          <mxGeometry relative="1" as="geometry">
            <mxPoint x="280" y="690" as="sourcePoint" />
            <mxPoint x="410" y="690" as="targetPoint" />
          </mxGeometry>
        </mxCell>
        <mxCell id="-wReRoixWaA4bcraCmIL-98" style="rounded=0;orthogonalLoop=1;jettySize=auto;html=1;exitX=0.25;exitY=0;exitDx=0;exitDy=0;entryX=0.25;entryY=1;entryDx=0;entryDy=0;" parent="1" source="-wReRoixWaA4bcraCmIL-91" target="-wReRoixWaA4bcraCmIL-68" edge="1">
          <mxGeometry relative="1" as="geometry">
            <mxPoint x="380" y="630" as="sourcePoint" />
            <mxPoint x="430" y="500" as="targetPoint" />
          </mxGeometry>
        </mxCell>
        <mxCell id="-wReRoixWaA4bcraCmIL-99" style="rounded=0;orthogonalLoop=1;jettySize=auto;html=1;exitX=0.5;exitY=0;exitDx=0;exitDy=0;entryX=0.75;entryY=1;entryDx=0;entryDy=0;" parent="1" source="-wReRoixWaA4bcraCmIL-91" target="-wReRoixWaA4bcraCmIL-68" edge="1">
          <mxGeometry relative="1" as="geometry">
            <mxPoint x="480" y="630" as="sourcePoint" />
            <mxPoint x="430" y="500" as="targetPoint" />
          </mxGeometry>
        </mxCell>
        <mxCell id="-wReRoixWaA4bcraCmIL-100" style="rounded=0;orthogonalLoop=1;jettySize=auto;html=1;exitX=1;exitY=0;exitDx=0;exitDy=0;entryX=0.75;entryY=1;entryDx=0;entryDy=0;" parent="1" source="-wReRoixWaA4bcraCmIL-91" target="-wReRoixWaA4bcraCmIL-68" edge="1">
          <mxGeometry relative="1" as="geometry">
            <mxPoint x="530" y="630" as="sourcePoint" />
            <mxPoint x="530" y="500" as="targetPoint" />
          </mxGeometry>
        </mxCell>
      </root>
    </mxGraphModel>
  </diagram>
</mxfile>
